<?xml version="1.0" encoding="UTF-8"?>
<svg version="1.1" xmlns="http://www.w3.org/2000/svg" width="1419" height="1418">
<path d="M0 0 C1.37287382 0.00192844 2.74574777 0.00376846 4.11862183 0.00552368 C89.05693357 0.16284941 174.39994693 15.04527272 299.1875 65.3125 C300.57799561 65.95856201 300.57799561 65.95856201 301.99658203 66.61767578 C326.11058095 77.8497747 349.60839719 90.23297629 372.1875 104.3125 C373.06567383 104.85729004 373.94384766 105.40208008 374.84863281 105.96337891 C412.12555951 129.15071163 447.35025507 155.90320941 479.5222168 185.79077148 C480.74937086 186.9121395 481.9898762 188.01893888 483.23754883 189.11743164 C490.56342104 195.59151112 497.47460867 202.44718425 504.37475586 209.36938477 C506.37826986 211.37827864 508.38710152 213.38174389 510.39648438 215.38476562 C516.5407448 221.52583633 522.57535807 227.67495489 528.1875 234.3125 C529.80717817 236.08820221 531.43161718 237.85958307 533.0625 239.625 C537.98374205 245.02726571 542.6014906 250.62555671 547.1875 256.3125 C548.16157866 257.49576549 549.13691 258.67800053 550.11328125 259.859375 C573.99517382 288.84081509 595.33575589 319.84123372 614.1875 352.3125 C614.97278076 353.65876465 614.97278076 353.65876465 615.77392578 355.03222656 C637.65222592 392.73001976 655.7508841 432.19668494 670.1875 473.3125 C670.79754883 475.03605713 670.79754883 475.03605713 671.41992188 476.79443359 C698.90183282 554.96353521 712.37876907 639.36031064 643.7980957 1009.78417969 C641.48473181 1014.57960579 639.12994438 1019.35424214 636.76416016 1024.12402344 C635.3501518 1026.9835696 633.95749643 1029.85206506 632.57421875 1032.7265625 C626.6264024 1044.9961129 619.87639387 1056.73478776 612.89404297 1068.44189453 C611.32165867 1071.08682937 609.76879987 1073.74201334 608.22265625 1076.40234375 C590.49304761 1106.71356989 569.58343587 1135.74503061 546.6875 1162.37890625 C544.36125425 1165.10861025 542.11323847 1167.88558751 539.875 1170.6875 C535.589993 1175.96076087 530.99445987 1180.90631939 526.32299805 1185.83544922 C523.5370953 1188.77725406 520.8124299 1191.7382122 518.19140625 1194.828125 C512.86437387 1200.9582164 507.03002779 1206.6184314 501.28149414 1212.34887695 C499.2548702 1214.37014268 497.23364453 1216.39669574 495.21289062 1218.42382812 C489.03947233 1224.6004319 482.86144968 1230.672441 476.1875 1236.3125 C474.41179779 1237.93217817 472.64041693 1239.55661718 470.875 1241.1875 C466.46396827 1245.20630593 461.95014642 1249.04115324 457.3046875 1252.78515625 C454.97512058 1254.66297916 452.67492603 1256.57274117 450.3828125 1258.49609375 C440.70069482 1266.59914376 430.75370243 1274.22500611 420.52099609 1281.61865234 C418.29054909 1283.23769831 416.07512133 1284.87519278 413.86328125 1286.51953125 C396.71629463 1299.196193 378.6090306 1310.58286417 360.1875 1321.3125 C359.46336914 1321.73885742 358.73923828 1322.16521484 357.99316406 1322.60449219 C323.23921656 1343.03699504 286.91592397 1360.14513826 249.1875 1374.3125 C248.18477051 1374.69567383 247.18204102 1375.07884766 246.14892578 1375.47363281 C183.90037569 1399.21379308 116.63541894 1413.10404106 50.1875 1417.3125 C48.92768311 1417.39862549 47.66786621 1417.48475098 46.36987305 1417.57348633 C31.42371414 1418.52441453 16.47113927 1418.51324905 1.5 1418.5 C0.82413094 1418.49973312 0.14826187 1418.49946625 -0.54808807 1418.49919128 C-21.03643823 1418.48904137 -41.40564556 1418.32017877 -61.8125 1416.3125 C-62.4735675 1416.24933594 -63.13463501 1416.18617187 -63.81573486 1416.12109375 C-109.97429446 1411.70687974 -155.21415391 1402.97685518 -199.8125 1390.3125 C-200.86920898 1390.0144043 -201.92591797 1389.71630859 -203.01464844 1389.40917969 C-261.80547573 1372.62501842 -318.90967333 1346.51388706 -370.8125 1314.3125 C-371.69647461 1313.76480957 -372.58044922 1313.21711914 -373.49121094 1312.65283203 C-394.4347811 1299.62350767 -414.32281932 1285.41882892 -433.8125 1270.3125 C-434.49602539 1269.78495117 -435.17955078 1269.25740234 -435.88378906 1268.71386719 C-443.82334908 1262.58115732 -451.56154169 1256.24684597 -459.17382812 1249.71289062 C-460.82182146 1248.30453398 -462.47989677 1246.90893142 -464.140625 1245.515625 C-478.77983287 1233.18809282 -492.3951957 1219.81974361 -505.9375 1206.3125 C-506.52453705 1205.72814178 -507.1115741 1205.14378357 -507.71640015 1204.54171753 C-513.44020293 1198.83775392 -519.12450989 1193.15099709 -524.37158203 1186.99853516 C-526.56867217 1184.427694 -528.88255595 1181.97452702 -531.1875 1179.5 C-536.30314836 1173.95586143 -541.08487548 1168.19152985 -545.8125 1162.3125 C-546.7850947 1161.13038715 -547.75913895 1159.94946594 -548.734375 1158.76953125 C-572.62295795 1129.78763127 -593.92241748 1098.76255997 -612.8125 1066.3125 C-613.3389209 1065.41063965 -613.8653418 1064.5087793 -614.40771484 1063.57958984 C-636.28196962 1025.88585312 -654.37773704 986.42303783 -668.8125 945.3125 C-669.21919922 944.16346191 -669.62589844 943.01442383 -670.04492188 941.83056641 C-697.22280823 864.52622742 -710.41799301 781.48826585 -636.39526367 395.58604431 C-632.35785955 387.24614479 -627.92521811 379.1392236 -623.36621094 371.07568359 C-621.70451857 368.12046138 -620.07321338 365.14974165 -618.4453125 362.17578125 C-599.85742935 328.35547304 -577.98428158 296.38781137 -553.8125 266.3125 C-553.06742188 265.384375 -552.32234375 264.45625 -551.5546875 263.5 C-542.50384973 252.34054411 -533.11264515 241.50359474 -523.33422852 230.9777832 C-522.2128605 229.75062914 -521.10606112 228.5101238 -520.00756836 227.26245117 C-513.53348888 219.93657896 -506.67781575 213.02539133 -499.75561523 206.12524414 C-497.74672136 204.12173014 -495.74325611 202.11289848 -493.74023438 200.10351562 C-487.59916367 193.9592552 -481.45004511 187.92464193 -474.8125 182.3125 C-473.03679779 180.69282183 -471.26541693 179.06838282 -469.5 177.4375 C-464.61913191 172.99063523 -459.58874476 168.78821099 -454.44970703 164.64501953 C-452.58861932 163.13028396 -450.74492794 161.59578215 -448.90234375 160.05859375 C-390.19458359 111.14679821 -322.26463357 72.26131158 -250.8125 45.3125 C-250.16361816 45.06713501 -249.51473633 44.82177002 -248.84619141 44.56896973 C-194.29251504 23.99883505 -137.11810813 10.51695061 -79.1875 4 C-77.2394043 3.77908691 -77.2394043 3.77908691 -75.25195312 3.55371094 C-50.22193814 0.86088471 -25.16091757 -0.07095468 0 0 Z " fill="#FEFEFE" transform="translate(708.8125,-0.3125)"/>
<path d="M0 0 C-5.62333391 28.6541941 -11.69472537 57.21218086 -17.99822998 85.72375488 C-21.44907968 101.34236434 -24.75161561 116.98991559 -27.99389648 132.65307617 C-28.34739869 134.35727878 -28.70099296 136.0614623 -29.0546875 137.765625 C-29.22215988 138.57547348 -29.38963226 139.38532196 -29.56217957 140.2197113 C-30.54128391 144.92007279 -31.60580696 149.5905255 -32.734375 154.2578125 C-33.80267906 158.8223182 -34.40732017 162.93857531 -34.375 167.625 C-34.38273438 168.77226563 -34.39046875 169.91953125 -34.3984375 171.1015625 C-34.23536558 173.9806193 -34.23536558 173.9806193 -32.6640625 175.8359375 C-28.32047443 178.87440991 -23.05953129 178.6379409 -18 178 C-11.01943845 175.51331433 -5.32957006 170.65914012 -2 164 C-1.86546501 161.70991547 -1.76822578 159.41761208 -1.6875 157.125 C-0.28675598 130.10579186 8.65053707 102.93282877 26 82 C26.69738281 81.12730469 27.39476562 80.25460937 28.11328125 79.35546875 C37.35713766 68.35409668 50.19517035 59.09074103 64.83251953 57.73828125 C68.01670302 57.5582426 71.18599416 57.47249628 74.375 57.4375 C75.39762939 57.42259521 76.42025879 57.40769043 77.47387695 57.39233398 C85.14528161 57.49829781 90.49544449 59.12446728 96.4375 64 C98 66 98 66 99 70 C100.485 64.555 100.485 64.555 102 59 C115.86 59 129.72 59 144 59 C142.87687711 70.23122893 142.87687711 70.23122893 141.94140625 74.1953125 C141.6172876 75.6040564 141.6172876 75.6040564 141.28662109 77.04125977 C141.04766113 78.05889404 140.80870117 79.07652832 140.5625 80.125 C137.02078609 95.60962445 133.81666932 111.16169313 130.60375977 126.71728516 C130.19172824 128.70869181 129.77953997 130.70006603 129.3671875 132.69140625 C129.06853035 134.13649567 129.06853035 134.13649567 128.76383972 135.61077881 C127.33096774 142.50746983 125.82546565 149.3857961 124.21798706 156.24403381 C122.66505855 163.02250825 120.98630333 170.39723767 124.875 176.625 C126.99879026 178.99864794 127.83504736 179.87884493 130.953125 180.203125 C136.84295419 180.3233256 140.88205499 179.72513304 145.48828125 175.69921875 C153.5991432 167.25302401 156.85666723 155.27001325 159.25 144.125 C159.53174072 142.86743896 159.81348145 141.60987793 160.10375977 140.31420898 C160.91078135 136.69778084 161.69480263 133.07670783 162.47271729 129.45391846 C163.03166439 126.85263724 163.59446309 124.25220784 164.15771484 121.65185547 C168.78571839 100.25663225 173.25677718 78.8311707 177.60592651 57.37768555 C181.09887846 40.1817517 184.99949508 23.08414985 189 6 C203.63852607 3.53663995 218.21982833 1.38378516 233 0 C230.68639793 12.75799359 228.05836021 25.440416 225.375 38.125 C224.76260742 41.0227567 224.15075975 43.920624 223.54043579 46.81881714 C223.16438342 48.60433812 222.7871543 50.38961183 222.40853882 52.17459106 C221.51015975 56.43800309 220.6742262 60.69384895 220 65 C221.22976563 64.36771484 221.22976563 64.36771484 222.484375 63.72265625 C224.10085938 62.90087891 224.10085938 62.90087891 225.75 62.0625 C226.81734375 61.51722656 227.8846875 60.97195313 228.984375 60.41015625 C236.40516216 56.94007313 245.82264762 56.64103732 253.73828125 58.71875 C255.9547738 59.6681285 257.94937781 60.73454476 260 62 C260.62261719 62.33902344 261.24523438 62.67804687 261.88671875 63.02734375 C270.86473529 68.49984407 274.47327266 79.30611339 277 89 C277.79887705 92.98530711 278.45724263 96.972169 279 101 C291.44605658 96.23342514 300.06568357 88.02369871 307.875 77.4375 C308.34035156 76.82326172 308.80570313 76.20902344 309.28515625 75.57617188 C309.76597656 74.93099609 310.24679687 74.28582031 310.7421875 73.62109375 C311.26361328 72.93080078 311.78503906 72.24050781 312.32226562 71.52929688 C314.14180951 68.91239507 314.14180951 68.91239507 315.69335938 65.47070312 C320.27842576 56.24977435 320.27842576 56.24977435 325.02752686 54.06893921 C330.81453664 52.38406723 336.76407263 52.03241344 342.75 51.625 C344.54614193 51.45378445 346.34173863 51.27674451 348.13671875 51.09375 C354.43012018 50.47835061 360.67335185 49.95837619 367 50 C367.04567108 50.81700882 367.09134216 51.63401764 367.13839722 52.4757843 C367.57683954 60.31121777 368.01767965 68.14651142 368.46098137 75.98167133 C368.68861302 80.00634818 368.91542952 84.03106693 369.14013672 88.0559082 C370.07646163 104.81730487 371.02808257 121.57063275 372.36947632 138.30561829 C373.80673663 156.54188702 375.26480792 175.84672288 363.3203125 191.15234375 C353.44369554 201.82810607 340.25065899 207.24201608 325.95605469 208.12646484 C313.99193462 208.57734503 302.07325817 208.29624693 292.03515625 200.91796875 C283.52449638 192.89736607 280.08277634 182.45459562 279.60009766 171.03344727 C279.44098352 162.16335074 280.92876903 154.8270772 286.3125 147.625 C291.46780997 142.58958096 294.90718986 140.76617838 302.0625 140.5625 C306.71854848 140.73710182 310.1652116 141.14849068 314 144 C316.38612004 146.86334405 316.9572247 148.67001914 317.4375 152.375 C316.79079778 157.73338981 314.94308735 161.17467552 310.9375 164.9375 C306.39171214 166.58172114 301.78656172 166.41761948 297 166 C296.67 165.67 296.34 165.34 296 165 C296.30994673 171.97380145 297.45570172 176.6548196 302.73828125 181.640625 C307.28649418 184.37426593 312.87729075 183.45294191 318 183 C322.84315854 181.55554921 324.75216021 179.51515913 327.23828125 175.109375 C333.14784472 158.74443 328.23133827 136.44565592 326.5625 119.6875 C326.10251822 114.96252358 325.64714326 110.23710617 325.19140625 105.51171875 C325.08325592 104.4005368 324.97510559 103.28935486 324.86367798 102.14450073 C324.11877771 94.43608905 323.46823989 86.73084489 323 79 C322.47889648 79.74145264 321.95779297 80.48290527 321.42089844 81.24682617 C310.05602919 97.3191879 297.20365213 109.33263188 279 117 C278.34 117 277.68 117 277 117 C277.061875 118.175625 277.12375 119.35125 277.1875 120.5625 C277.07883747 143.78006089 265.71898304 167.63674815 251 185 C250.36449219 185.75023437 249.72898437 186.50046875 249.07421875 187.2734375 C239.16888346 198.00598494 226.89828735 203.52154596 213 207 C212.19949219 207.20238281 211.39898438 207.40476562 210.57421875 207.61328125 C196.63149493 209.70786343 181.04095821 208.73914579 169 201 C163.03057025 196.4385644 159.96960786 190.80135995 157 184 C156.34 184.66 155.68 185.32 155 186 C154.53335938 186.45761719 154.06671875 186.91523437 153.5859375 187.38671875 C152.49160594 188.4999181 151.43574947 189.65180665 150.4140625 190.83203125 C141.14029413 201.09797134 127.5745697 207.06537894 113.90625 208.2734375 C105.37350994 208.5535527 98.53027626 207.30100212 91.75 201.9375 C86.27942661 196.79450586 83.24258785 190.35088812 82 183 C79.07265084 185.83864161 76.40044731 188.72285565 73.8125 191.875 C66.46277809 200.30649916 57.41425213 204.52858262 47 208 C33.54257596 208.7943088 23.51193476 207.69981446 12.484375 199.2578125 C8.82807445 195.93494817 6.47791433 192.22516161 4 188 C3.01640638 186.65451816 2.02076738 185.31750208 1 184 C0.47792969 184.64066406 -0.04414062 185.28132812 -0.58203125 185.94140625 C-10.46021011 197.54956389 -24.56870095 206.43450589 -40 208 C-50.616896 208.74525967 -59.21161548 207.93850331 -67.8125 201.3125 C-71.58268777 197.81796275 -73.77715523 193.57889371 -76 189 C-76.37511719 188.24976563 -76.75023437 187.49953125 -77.13671875 186.7265625 C-77.56404297 185.87191406 -77.56404297 185.87191406 -78 185 C-78.65484375 185.71285156 -79.3096875 186.42570313 -79.984375 187.16015625 C-90.78655693 198.61744083 -104.34101217 207.11748771 -120.41796875 208.23828125 C-131.40487808 208.45460382 -139.88212256 206.91487803 -148.171875 199.21484375 C-151.66895103 194.97800163 -153.82749888 190.01156508 -156 185 C-156.70125 185.94875 -157.4025 186.8975 -158.125 187.875 C-166.00603961 197.04159926 -178.29785754 204.96165405 -190.05078125 207.71459961 C-193.18393256 208.69310552 -193.18393256 208.69310552 -194.13671875 211.43579102 C-194.31847656 212.44826904 -194.50023437 213.46074707 -194.6875 214.50390625 C-194.90784912 215.62925781 -195.12819824 216.75460937 -195.35522461 217.9140625 C-195.56800049 219.11804688 -195.78077637 220.32203125 -196 221.5625 C-196.49369808 224.03408315 -196.99500639 226.50415832 -197.50390625 228.97265625 C-197.87539795 230.78080811 -197.87539795 230.78080811 -198.25439453 232.62548828 C-201.49942865 247.31208344 -207.22571868 262.13478837 -220 271 C-232.22278378 278.61524225 -247.08590028 282.30053795 -261.3125 279.25 C-269.47022242 276.48467037 -277.18165115 272.91788542 -281.3125 264.9375 C-284.84792463 257.40421124 -285.40412277 248.41590212 -283.31640625 240.36328125 C-282.36530183 238.10194169 -281.29246121 236.0840937 -280 234 C-279.5875 233.31421875 -279.175 232.6284375 -278.75 231.921875 C-270.30803919 219.35486515 -252.05056883 211.58301816 -238 207 C-237.34 207 -236.68 207 -236 207 C-235.34 202.71 -234.68 198.42 -234 194 C-234.86625 194.845625 -235.7325 195.69125 -236.625 196.5625 C-247.57540956 205.98703282 -259.96822763 208.83181078 -274.02880859 208.17480469 C-282.61741292 207.41316972 -289.97647785 202.97673751 -296 197 C-299.62127068 192.55536672 -302.11657439 188.72218861 -303 183 C-303.639375 183.639375 -304.27875 184.27875 -304.9375 184.9375 C-305.39640625 185.39125 -305.8553125 185.845 -306.328125 186.3125 C-307.56738464 187.5633415 -308.78262116 188.83808251 -309.984375 190.125 C-319.86886521 200.50020958 -332.29418481 207.149857 -346.796875 208.203125 C-356.83989999 208.3625381 -363.86152096 206.94037447 -371.2734375 199.8828125 C-376.22234041 194.48604508 -377.67279994 189.21476126 -378 182 C-378.66 182 -379.32 182 -380 182 C-380.2475 182.56074219 -380.495 183.12148438 -380.75 183.69921875 C-387.77848228 196.63601894 -400.60177141 203.5339238 -414 208 C-426.26458537 208.85795838 -436.95185442 207.89497153 -447 200 C-452.0428549 195.58750196 -456.00381866 189.99236267 -459 184 C-459.32871094 184.4846875 -459.65742188 184.969375 -459.99609375 185.46875 C-467.54633948 196.10866268 -477.67953677 204.1229827 -490.41015625 207.671875 C-500.67113867 208.97190897 -510.79304872 209.15086748 -520 204 C-521.0725 203.443125 -522.145 202.88625 -523.25 202.3125 C-529.43642635 197.11027784 -533.44506729 189.90544556 -535 182 C-535.69128767 171.89332466 -534.30760332 162.37739433 -532.3125 152.5 C-532.03937238 151.09934814 -531.76700224 149.69854837 -531.49536133 148.29760742 C-529.52176453 138.21317146 -527.34272809 128.17644237 -524.98046875 118.17578125 C-524.71967529 117.06227295 -524.71967529 117.06227295 -524.45361328 115.92626953 C-524.10182194 114.43238702 -523.74199526 112.94039562 -523.37890625 111.44921875 C-522.81438245 107.80018345 -522.77547458 104.18744549 -522.75 100.5 C-522.729375 99.75363281 -522.70875 99.00726562 -522.6875 98.23828125 C-522.65509247 93.66071777 -523.04739552 90.72658818 -526 87 C-529.48097363 85.25951318 -533.19398206 85.55564258 -537 86 C-546.63273888 90.53305359 -550.53260588 100.5635031 -554 110 C-555.09188765 113.71514191 -555.9090241 117.45801976 -556.6875 121.25 C-556.92460693 122.35553223 -557.16171387 123.46106445 -557.40600586 124.60009766 C-558.28599689 128.73031226 -559.14410495 132.86474149 -560 137 C-560.38754897 138.86624133 -560.77525352 140.73245036 -561.16308594 142.59863281 C-561.36896835 143.58972046 -561.57485077 144.58080811 -561.78697205 145.60192871 C-562.21890546 147.68082042 -562.65100647 149.75967731 -563.08326721 151.83850098 C-564.16487115 157.0424402 -565.24223851 162.24716512 -566.30932617 167.45410156 C-568.96655592 180.36763306 -571.88843871 193.1876888 -575 206 C-588.86 206 -602.72 206 -617 206 C-615.875 194.75 -615.875 194.75 -615.01953125 190.7578125 C-614.82812057 189.85157135 -614.6367099 188.9453302 -614.4394989 188.0116272 C-614.23258926 187.05904022 -614.02567963 186.10645325 -613.8125 185.125 C-613.59386795 184.0978891 -613.3752359 183.0707782 -613.14997864 182.01254272 C-612.68106647 179.81340749 -612.20967152 177.61480041 -611.73599243 175.41668701 C-610.991264 171.95944499 -610.25396849 168.50068651 -609.51831055 165.04150391 C-607.35262917 154.87530616 -605.16470502 144.71429786 -602.92605591 134.56390381 C-602.08152893 130.73316744 -601.24352883 126.90101386 -600.40551758 123.06884766 C-599.8259199 120.43596138 -599.23454499 117.80590932 -598.64257812 115.17578125 C-595.19387522 100.50234867 -595.19387522 100.50234867 -598 86 C-606.59134094 85.18453524 -606.59134094 85.18453524 -614.375 88.3125 C-623.09496369 95.98099197 -626.71758216 108.53307498 -628.91015625 119.5703125 C-629.07869614 120.38932541 -629.24723602 121.20833832 -629.42088318 122.0521698 C-629.78414166 123.81999602 -630.14457541 125.58840461 -630.50244141 127.35733032 C-631.46880933 132.13287924 -632.45609884 136.90411047 -633.44140625 141.67578125 C-633.64653839 142.67169785 -633.85167053 143.66761444 -634.0630188 144.69371033 C-636.66036282 157.26474267 -639.41318366 169.8020471 -642.16433716 182.34014893 C-642.5889331 184.27534081 -643.01301978 186.21064451 -643.4365387 188.14607239 C-643.82028147 189.89937565 -644.20530876 191.65239849 -644.59190369 193.40507507 C-644.76331375 194.18832657 -644.93472382 194.97157806 -645.11132812 195.77856445 C-645.2596106 196.45272903 -645.40789307 197.12689362 -645.56066895 197.82148743 C-646.10787649 200.53492757 -646.54493263 203.26959578 -647 206 C-661.19 206 -675.38 206 -690 206 C-689.34 201.38 -688.68 196.76 -688 192 C-689.588125 193.216875 -691.17625 194.43375 -692.8125 195.6875 C-698.2873104 199.66024703 -703.70399842 202.5628381 -710 205 C-710.77601563 205.3196875 -711.55203125 205.639375 -712.3515625 205.96875 C-721.27273899 209.19111475 -732.51184281 209.6554822 -741.5 206.4375 C-749.37589842 202.65865985 -755.04643243 197.2699892 -758 189 C-761.38897968 178.94992232 -760.55172122 168.22211472 -758.76953125 157.9375 C-758.63805695 157.16588028 -758.50658264 156.39426056 -758.37112427 155.59925842 C-756.61241922 145.49764538 -754.4890029 135.46945251 -752.375 125.4375 C-751.93757985 123.3489757 -751.50024394 121.26043375 -751.06298828 119.171875 C-746.84646657 99.08383253 -742.43751483 79.04038955 -738 59 C-723.81 59 -709.62 59 -695 59 C-696.2097126 66.25827557 -697.43476565 73.44083379 -698.953125 80.62890625 C-699.13388077 81.49366577 -699.31463654 82.35842529 -699.50086975 83.24938965 C-700.08119645 86.02100476 -700.66536009 88.79179177 -701.25 91.5625 C-701.65520654 93.49080099 -702.06039848 95.41910506 -702.46557617 97.34741211 C-704.69410106 107.93119134 -706.95994783 118.50551919 -709.3125 129.0625 C-709.54888184 130.12766846 -709.78526367 131.19283691 -710.02880859 132.2902832 C-711.05953164 136.90726222 -712.11692692 141.51344059 -713.25390625 146.10546875 C-715.52844075 155.4275197 -717.1006866 164.36259293 -716 174 C-714.38297027 177.07345802 -714.38297027 177.07345802 -712.1328125 177.6640625 C-703.9700945 178.94976533 -697.86262747 177.83684357 -691 173 C-681.2288781 163.87396187 -678.46793087 150.0802363 -676.1875 137.4375 C-675.68591107 134.79610968 -675.18140348 132.15547624 -674.671875 129.515625 C-674.47482216 128.48818428 -674.47482216 128.48818428 -674.27378845 127.43998718 C-672.66875201 119.15104547 -670.79804523 110.92207484 -668.9375 102.6875 C-666.27198948 90.87016235 -663.72748217 79.04675542 -661.45874023 67.14526367 C-661.18719116 65.73724487 -661.18719116 65.73724487 -660.91015625 64.30078125 C-660.75683838 63.48778564 -660.60352051 62.67479004 -660.44555664 61.8371582 C-660 60 -660 60 -659 59 C-655.89748799 58.91125865 -652.8173188 58.88481545 -649.71484375 58.90234375 C-648.78402481 58.9037587 -647.85320587 58.90517365 -646.8941803 58.90663147 C-643.90858809 58.91224828 -640.92306971 58.9248036 -637.9375 58.9375 C-635.91862087 58.94251284 -633.89974057 58.94707612 -631.88085938 58.95117188 C-626.92054428 58.96222317 -621.96028468 58.97949905 -617 59 C-617.33 63.29 -617.66 67.58 -618 72 C-616.72125 70.783125 -615.4425 69.56625 -614.125 68.3125 C-602.82886475 58.24769702 -591.86123263 57.27281625 -577.35009766 57.81640625 C-571.23381864 58.29422069 -566.89504547 60.48396362 -562.1875 64.25 C-558.04213185 69.46131996 -554.78254771 74.51800833 -553 81 C-552.38125 80.14728516 -552.38125 80.14728516 -551.75 79.27734375 C-544.14201859 69.10506503 -534.8436662 60.71537234 -522 58 C-510.31238995 56.98569341 -499.29221718 57.0355157 -489.625 64.375 C-481.63148324 72.36851676 -479.74703546 80.93421483 -479.6875 91.875 C-479.67928223 92.95249512 -479.67928223 92.95249512 -479.67089844 94.05175781 C-479.83336717 106.61787362 -483.32439308 118.70349184 -486.46557617 130.78027344 C-492.90443912 152.23708264 -492.90443912 152.23708264 -492.1875 174 C-491.01575898 176.301672 -491.01575898 176.301672 -488 178 C-482.66890856 178.81818043 -477.48896683 178.7481952 -472.6875 176.125 C-467.42795064 172.18303796 -463.8046409 167.40424601 -462.60302734 160.82714844 C-462.05272889 156.57208478 -461.72936167 152.30493403 -461.41015625 148.02734375 C-459.61078257 124.06726258 -450.16241467 98.9472212 -434 81 C-433.40058594 80.24847656 -432.80117188 79.49695313 -432.18359375 78.72265625 C-424.00042261 68.72859546 -411.97072627 60.06140922 -399 58 C-394.70618659 57.59293905 -390.43667323 57.43781867 -386.125 57.375 C-385.05475586 57.35171631 -383.98451172 57.32843262 -382.88183594 57.30444336 C-376.00393093 57.37378141 -371.2818915 58.46408726 -366 63 C-363.5 65.8125 -363.5 65.8125 -362 68 C-360.515 63.545 -360.515 63.545 -359 59 C-345.14 59 -331.28 59 -317 59 C-318.12497807 69.12480265 -318.12497807 69.12480265 -318.88867188 72.74560547 C-319.06007187 73.56863159 -319.23147186 74.39165771 -319.4080658 75.23962402 C-319.59309158 76.10671997 -319.77811737 76.97381592 -319.96875 77.8671875 C-320.16509537 78.80437622 -320.36144073 79.74156494 -320.56373596 80.70715332 C-321.20512044 83.76396712 -321.85245169 86.81948654 -322.5 89.875 C-322.94756285 92.00073412 -323.3947422 94.12654902 -323.84155273 96.25244141 C-324.76353824 100.63741759 -325.68763723 105.0219417 -326.61279297 109.40625 C-327.96445863 115.82024481 -329.29862956 122.23779019 -330.62890625 128.65625 C-331.24314223 131.61431654 -331.8576157 134.57233363 -332.47216797 137.53033447 C-332.86504695 139.42352212 -333.25713959 141.31687312 -333.6484375 143.21038818 C-334.19142321 145.83611691 -334.73786551 148.46110326 -335.28515625 151.0859375 C-335.5251107 152.2528009 -335.5251107 152.2528009 -335.76991272 153.4432373 C-336.88597833 158.77195665 -336.88597833 158.77195665 -338 161 C-338.53013375 167.23926648 -338.68427506 172.67826936 -335 178 C-330.93041839 180.71305441 -327.77190659 180.50834744 -323 180 C-317.48210834 178.16070278 -314.33998317 174.58429063 -311 170 C-310.45730469 169.26007813 -309.91460938 168.52015625 -309.35546875 167.7578125 C-307.62950398 164.24619542 -307.56144558 161.08025386 -307.5 157.25 C-306.25584575 125.69838491 -294.40085317 94.02605304 -271.0625 72.1875 C-259.1464621 61.92137504 -247.26967457 57.68403372 -231.6875 57.5625 C-230.75647461 57.55234863 -229.82544922 57.54219727 -228.86621094 57.53173828 C-222.68410629 57.61025875 -216.25106566 58.04767816 -211.44042969 62.41625977 C-209.3298191 64.8421157 -208.01894542 66.94316374 -207 70 C-206.34 66.37 -205.68 62.74 -205 59 C-190.81 59 -176.62 59 -162 59 C-163.24928832 66.49572992 -164.53496572 73.91137053 -166.1015625 81.3359375 C-166.29890991 82.28096634 -166.49625732 83.22599518 -166.69958496 84.19966125 C-167.33901035 87.25861126 -167.98191597 90.31681726 -168.625 93.375 C-169.07553862 95.52575971 -169.52589432 97.67655775 -169.97607422 99.82739258 C-171.10469622 105.21659668 -172.23629338 110.60517136 -173.36865234 115.99359131 C-174.12950548 119.61669099 -174.88805525 123.24026971 -175.64627075 126.86392212 C-180.33403217 149.26368498 -185.13741292 171.63757182 -190 194 C-188.41705486 193.39509017 -186.83685538 192.78299296 -185.2578125 192.16796875 C-184.37754395 191.82789795 -183.49727539 191.48782715 -182.59033203 191.13745117 C-169.4645111 185.37371887 -162.11518122 173.2572012 -156.92945862 160.51765442 C-155.4482174 156.50536876 -154.47371205 152.42141808 -153.53515625 148.25390625 C-153.32543182 147.34776077 -153.1157074 146.4416153 -152.89962769 145.50801086 C-150.84112753 136.51439838 -148.9864485 127.47968093 -147.17529297 118.43353271 C-146.22251767 113.67906138 -145.25610801 108.92736756 -144.2890625 104.17578125 C-144.0968512 103.23101929 -143.90463989 102.28625732 -143.706604 101.31286621 C-141.87118242 92.3189314 -139.95830738 83.34290434 -138 74.375 C-137.85234192 73.69424408 -137.70468384 73.01348816 -137.55255127 72.31210327 C-137.14231614 70.42353528 -136.72754049 68.53595526 -136.3125 66.6484375 C-136.08175781 65.59833496 -135.85101562 64.54823242 -135.61328125 63.46630859 C-135 61 -135 61 -134 59 C-120.14 59 -106.28 59 -92 59 C-93.12515411 69.12638703 -93.12515411 69.12638703 -93.84448242 72.63232422 C-94.00544907 73.42639175 -94.16641571 74.22045929 -94.33226013 75.03858948 C-94.50491898 75.86890182 -94.67757782 76.69921417 -94.85546875 77.5546875 C-95.03759415 78.44570663 -95.21971954 79.33672577 -95.40736389 80.25474548 C-95.99639169 83.1290782 -96.59163292 86.00207798 -97.1875 88.875 C-97.59806916 90.86806468 -98.00855038 92.86114748 -98.41894531 94.85424805 C-101.68483526 110.66875723 -105.09889384 126.44780364 -108.73535156 142.18164062 C-109.45717635 145.30669496 -110.16655786 148.43438939 -110.875 151.5625 C-111.0905957 152.47298096 -111.30619141 153.38346191 -111.52832031 154.3215332 C-113.05771797 161.125831 -114.5648606 168.51462866 -111.625 175.0625 C-109.66020715 177.40513763 -108.70991965 177.92709579 -105.6796875 178.23828125 C-97.81019994 178.44652674 -92.8506565 177.39806068 -86.90625 172.15234375 C-77.66841099 162.65598312 -75.12862872 150.48344884 -72.66241455 137.91848755 C-72.00257024 134.55825098 -71.31518706 131.20380356 -70.62945557 127.84877014 C-70.27412012 126.10972472 -69.92008115 124.37041391 -69.56732178 122.63084412 C-68.01011806 114.97075065 -66.32946962 107.34161866 -64.6104126 99.71646118 C-61.24216377 84.77025406 -58.00403537 69.79735908 -54.8125 54.8125 C-54.59715607 53.80394958 -54.38181213 52.79539917 -54.15994263 51.75628662 C-52.15479805 42.3590419 -50.15115014 32.96406509 -48.359375 23.5234375 C-48.01942505 21.7448938 -48.01942505 21.7448938 -47.67260742 19.93041992 C-47.28061591 17.84685721 -46.89962288 15.7611786 -46.5324707 13.6730957 C-46.36835693 12.79484131 -46.20424316 11.91658691 -46.03515625 11.01171875 C-45.9050415 10.27397217 -45.77492676 9.53622559 -45.64086914 8.77612305 C-45 7 -45 7 -42 5 C-39.25267576 4.48471625 -36.55748384 4.06330939 -33.7890625 3.7109375 C-32.98391205 3.60278717 -32.1787616 3.49463684 -31.34921265 3.38320923 C-29.64670795 3.15608083 -27.94369517 2.93273349 -26.24023438 2.71289062 C-23.64072061 2.37703112 -21.04299583 2.02939459 -18.4453125 1.6796875 C-16.78915469 1.46024063 -15.13290731 1.24146844 -13.4765625 1.0234375 C-12.70245026 0.92034271 -11.92833801 0.81724792 -11.13076782 0.71102905 C-7.39771374 0.23259596 -3.76508236 -0.12223687 0 0 Z " fill="#010101" transform="translate(903,571)"/>
<path d="M0 0 C2.26152076 1.86242886 3.75305939 3.15053359 5.125 5.75 C5.4585538 11.33238119 4.56846195 16.30168743 3.3671875 21.70703125 C3.18369247 22.55963028 3.00019745 23.41222931 2.81114197 24.29066467 C2.21510159 27.04967636 1.60830164 29.80616771 1 32.5625 C0.58397488 34.4643 0.16820466 36.36615578 -0.24731445 38.26806641 C-1.07160566 42.03373629 -1.90112286 45.79820721 -2.73388672 49.56201172 C-3.71307401 53.99603493 -4.66033074 58.43585812 -5.59765625 62.87890625 C-11.73130718 91.49330509 -11.73130718 91.49330509 -23.875 99.75 C-28.21580527 102.30996208 -32.95448587 102.41939857 -37.875 101.75 C-43.23758753 99.42283937 -44.86806656 96.34160465 -47.03930664 91.21850586 C-48.34639835 87.3575639 -48.51349833 83.80046058 -48.4375 79.75 C-48.42799316 78.90405273 -48.41848633 78.05810547 -48.40869141 77.18652344 C-47.63487166 52.43323733 -39.81542983 22.95239439 -22.09375 4.71484375 C-15.67447698 -0.96982937 -8.20995783 -3.56954688 0 0 Z " fill="#FCFCFC" transform="translate(532.875,648.25)"/>
<path d="M0 0 C2.65319012 2.19835753 3.92215799 3.5788482 5.1875 6.8125 C5.03262995 12.69659556 3.74736355 18.56168996 2.55078125 24.30859375 C2.39089722 25.09172943 2.23101318 25.87486511 2.06628418 26.68173218 C1.54916408 29.20554373 1.02537026 31.72789375 0.5 34.25 C0.23163834 35.54349869 0.23163834 35.54349869 -0.04214478 36.86312866 C-1.12088453 42.05736621 -2.21081628 47.24915084 -3.31005859 52.43908691 C-3.7737056 54.62924452 -4.23464848 56.81995574 -4.6953125 59.01074219 C-5.44657601 62.55280378 -6.21795827 66.08962386 -7 69.625 C-7.21293701 70.62909912 -7.42587402 71.63319824 -7.64526367 72.66772461 C-10.01326839 83.09390748 -14.18109115 92.56021168 -22.875 99.125 C-27.66028912 101.87399588 -31.27512475 102.1039408 -36.8125 101.8125 C-40.8196591 100.69422304 -43.20168029 99.05351758 -45.8125 95.8125 C-47.95713086 90.76765659 -48.12662348 86.25811179 -48.0625 80.875 C-48.05428223 80.03308105 -48.04606445 79.19116211 -48.03759766 78.32373047 C-47.69213457 58.71405709 -43.08280061 39.17113789 -33.8125 21.8125 C-33.255625 20.75417969 -32.69875 19.69585938 -32.125 18.60546875 C-27.51894684 10.26727877 -22.23501144 2.62793538 -13 -0.875 C-8.29534009 -1.54709427 -4.37783464 -1.84841907 0 0 Z " fill="#FCFCFC" transform="translate(993.8125,648.1875)"/>
<path d="M0 0 C2.53091389 2.22413645 3.82336194 3.64581385 5.0625 6.8125 C4.58126451 15.57853475 2.32451226 24.09260802 0.375 32.625 C-0.35513621 35.84584278 -1.08225623 39.06736116 -1.80859375 42.2890625 C-2.0810643 43.49489235 -2.0810643 43.49489235 -2.35903931 44.7250824 C-3.50889318 49.83574876 -4.60745277 54.95442947 -5.66015625 60.0859375 C-5.92030518 61.3443042 -6.1804541 62.6026709 -6.44848633 63.89916992 C-6.92652498 66.22840417 -7.3969353 68.55922267 -7.8581543 70.8918457 C-9.81737478 80.37511305 -12.83649617 91.19487749 -20.9296875 97.3203125 C-26.74145341 101.04580347 -31.97302045 103.0136706 -38.9375 101.8125 C-43.17088719 99.58020544 -45.42931808 97.17103966 -47.109375 92.6796875 C-48.0683156 88.20161581 -48.28074618 84.06469421 -48.25 79.5 C-48.24262817 78.19047363 -48.24262817 78.19047363 -48.23510742 76.85449219 C-47.81431632 52.97082097 -40.48860732 23.8670229 -23.56640625 6.359375 C-16.45311085 -0.13486514 -9.64922854 -3.90075196 0 0 Z " fill="#FCFCFC" transform="translate(687.9375,648.1875)"/>
<path d="M0 0 C3.85737283 3.40884111 6.16738051 6.5174304 7.5625 11.5 C7.6875 14.375 7.6875 14.375 6.71484375 16.0859375 C5.23889556 19.37455209 5.38559139 22.2880499 5.375 25.875 C5.35824219 27.1846875 5.34148437 28.494375 5.32421875 29.84375 C5.37361469 33.32695619 5.37361469 33.32695619 7.23046875 35.41015625 C9.76408825 38.82680668 8.57661399 42.3767986 8.02832031 46.39526367 C5.21595034 64.19315401 -1.62866543 83.15077445 -15.3125 95.375 C-20.94731799 98.71997163 -25.8701374 99.55905217 -32.3125 98.375 C-35.79647565 96.37979854 -38.50750116 93.98499767 -40.3125 90.375 C-41.3356466 80.98332911 -38.95726533 72.05295721 -36.8125 63 C-36.26412074 60.63086597 -35.71972776 58.26083914 -35.17570496 55.89070129 C-34.79863871 54.24861816 -34.42021569 52.60684604 -34.04048157 50.96537781 C-32.66072798 44.9788575 -31.36388326 38.97795253 -30.10546875 32.96484375 C-29.83882919 31.69785645 -29.83882919 31.69785645 -29.56680298 30.40527344 C-28.52621702 25.45973731 -28.52621702 25.45973731 -27.50195312 20.51080322 C-27.03429751 18.2358535 -26.55535322 15.9635374 -26.07421875 13.69140625 C-25.94009079 13.02213608 -25.80596283 12.35286591 -25.66777039 11.66331482 C-24.8226035 7.72981043 -23.65708044 4.65461018 -21.3125 1.375 C-14.93692886 -2.37608904 -6.62348238 -3.24925551 0 0 Z " fill="#FCFCFC" transform="translate(1141.3125,651.625)"/>
<path d="M0 0 C5.20636894 5.3509903 7.5680354 10.34898264 7.8125 17.875 C7.44263815 26.02144431 5.27466348 30.68743237 -0.6875 36.1875 C-6.58848502 41.23207964 -11.9372575 41.76665251 -19.5234375 41.62109375 C-25.82215709 41.01867384 -29.81601009 38.59863785 -34.0625 34 C-39.11467052 27.5023856 -40.68106586 21.4167071 -39.75 13.3125 C-37.67654876 6.23837224 -32.99644961 0.65296367 -27.0625 -3.625 C-17.26761923 -8.12535062 -8.73974613 -5.36302604 0 0 Z " fill="#030303" transform="translate(210.75,572.6875)"/>
<path d="M0 0 C5.98493975 3.327061 10.19206271 7.75912541 13.25 13.875 C14.85728248 22.80434714 13.9743634 29.36587571 8.8125 37 C4.51993531 41.92937373 -0.83782239 44.61020376 -7.2421875 45.35546875 C-14.58533047 45.66920581 -19.67447418 45.02325815 -25.1875 40 C-30.72968103 34.44542036 -33.47485355 30.27841458 -33.5625 22.25 C-33.43717902 15.14356349 -32.45278662 10.53200558 -27.609375 5.29296875 C-19.57405063 -2.14513556 -10.13057834 -4.55722065 0 0 Z " fill="#030303" transform="translate(808.1875,569)"/>
<path d="M0 0 C-0.25958519 11.77572819 -3.6963886 23.3311271 -12 32 C-15.47447508 33.73723754 -19.20907055 33.58685207 -23 33 C-26.15798507 30.39466232 -26.8655227 28.49308343 -27.9375 24.5625 C-28.03517763 18.99487508 -25.82090085 15.6928819 -22.25 11.625 C-17.04410299 6.60983628 -7.33098022 0 0 0 Z " fill="#F9F9F9" transform="translate(663,794)"/>
</svg>
